<?xml version="1.0" encoding="UTF-8"?>
<svg xmlns="http://www.w3.org/2000/svg">
	<symbol id="icon-close" viewBox="0 0 48 48">
		<path d="M39.4863 6.9785A1.5002 1.5002 0 0038.4395 7.4395L24 21.8789 9.5605 7.4395A1.5002 1.5002 0 008.4844 6.9844 1.5002 1.5002 0 007.4395 9.5605L21.8789 24 7.4395 38.4395A1.5002 1.5002 0 109.5605 40.5605L24 26.1211 38.4395 40.5605A1.5002 1.5002 0 1040.5605 38.4395L26.1211 24 40.5605 9.5605A1.5002 1.5002 0 0039.4863 6.9785z" />
	</symbol>
	<symbol id="icon-maximize" viewBox="0 0 48 48">
		<path d="M11.5 6C8.4802 6 6 8.4802 6 11.5L6 36.5C6 39.5198 8.4802 42 11.5 42L36.5 42C39.5198 42 42 39.5198 42 36.5L42 11.5C42 8.4802 39.5198 6 36.5 6L11.5 6zM11.5 9 36.5 9C37.8982 9 39 10.1018 39 11.5L39 36.5C39 37.8982 37.8982 39 36.5 39L11.5 39C10.1018 39 9 37.8982 9 36.5L9 11.5C9 10.1018 10.1018 9 11.5 9z" />
	</symbol>
	<symbol id="icon-minimize" viewBox="0 0 48 48">
		<path d="M6.5 22.5A1.5002 1.5002 0 106.5 25.5L41.5 25.5A1.5002 1.5002 0 1041.5 22.5L6.5 22.5z" />
	</symbol>
</svg>
