<?xml version="1.0" encoding="UTF-8"?>
<svg xmlns="http://www.w3.org/2000/svg">
	<symbol id="icon-close" viewBox="0 0 48 48">
		<path d="M39.4863 6.9785A1.5002 1.5002 0 0038.4395 7.4395L24 21.8789 9.5605 7.4395A1.5002 1.5002 0 008.4844 6.9844 1.5002 1.5002 0 007.4395 9.5605L21.8789 24 7.4395 38.4395A1.5002 1.5002 0 109.5605 40.5605L24 26.1211 38.4395 40.5605A1.5002 1.5002 0 1040.5605 38.4395L26.1211 24 40.5605 9.5605A1.5002 1.5002 0 0039.4863 6.9785z" />
	</symbol>
	<symbol id="icon-maximize" viewBox="0 0 48 48">
		<path d="M11.5 6C8.4802 6 6 8.4802 6 11.5L6 36.5C6 39.5198 8.4802 42 11.5 42L36.5 42C39.5198 42 42 39.5198 42 36.5L42 11.5C42 8.4802 39.5198 6 36.5 6L11.5 6zM11.5 9 36.5 9C37.8982 9 39 10.1018 39 11.5L39 36.5C39 37.8982 37.8982 39 36.5 39L11.5 39C10.1018 39 9 37.8982 9 36.5L9 11.5C9 10.1018 10.1018 9 11.5 9z" />
	</symbol>
	<symbol id="icon-minimize" viewBox="0 0 48 48">
		<path d="M6.5 22.5A1.5002 1.5002 0 106.5 25.5L41.5 25.5A1.5002 1.5002 0 1041.5 22.5L6.5 22.5z" />
	</symbol>
    <symbol id="icon-wifi" viewBox="0 0 48 48">
        <path d="M23.810547 7.1054688C15.94203 7.1054687 8.0747054 10.103029 2.0800781 16.097656 A 1.50015 1.50015 0 1 0 4.2011719 18.21875C15.043917 7.3760045 32.579129 7.3760045 43.421875 18.21875 A 1.50015 1.50015 0 1 0 45.542969 16.097656C39.548342 10.103029 31.679063 7.1054688 23.810547 7.1054688 z M 23.810547 16.025391C18.224534 16.025391 12.639854 18.151161 8.3867188 22.404297 A 1.50015 1.50015 0 1 0 10.507812 24.525391C17.867542 17.165661 29.755505 17.165661 37.115234 24.525391 A 1.50015 1.50015 0 1 0 39.236328 22.404297C34.983193 18.151161 29.396559 16.025391 23.810547 16.025391 z M 23.810547 24.943359C20.507045 24.943359 17.203063 26.199281 14.691406 28.710938 A 1.5005302 1.5005302 0 0 0 16.814453 30.832031C20.69114 26.955344 26.931906 26.955344 30.808594 30.832031 A 1.50015 1.50015 0 1 0 32.929688 28.710938C30.418031 26.199281 27.114049 24.943359 23.810547 24.943359 z M 24 34 A 4 4 0 0 0 24 42 A 4 4 0 0 0 24 34 z" />
    </symbol>
    <symbol id="icon-audio" viewBox="0 0 48 48">
        <path d="M24.216797 6.1015625C24.084935 6.1013567 23.952471 6.1110209 23.820312 6.1289062C23.29168 6.2004472 22.770296 6.4185563 22.339844 6.8007812 A 1.50015 1.50015 0 0 0 22.339844 6.8027344L13.117188 15L6.5 15C4.0324991 15 2 17.032499 2 19.5L2 28.5C2 30.967501 4.0324991 33 6.5 33L13.117188 33L22.339844 41.197266C23.200649 41.96254 24.421458 42.075139 25.345703 41.660156C26.269948 41.245173 27 40.257378 27 39.105469L27 8.8945312C27 7.7430679 26.271967 6.7549754 25.347656 6.3398438C25.00104 6.1841693 24.612384 6.10218 24.216797 6.1015625 z M 40.21875 7.9824219 A 1.50015 1.50015 0 0 0 38.992188 10.251953C44.374902 19.537137 44.394285 28.463914 38.994141 37.746094 A 1.50015 1.50015 0 1 0 41.585938 39.253906C47.425745 29.216086 47.405128 18.782863 41.587891 8.7480469 A 1.50015 1.50015 0 0 0 40.21875 7.9824219 z M 24 9.3398438L24 38.660156L14.683594 30.378906 A 1.50015 1.50015 0 0 0 13.6875 30L6.5 30C5.6535009 30 5 29.346499 5 28.5L5 19.5C5 18.653501 5.6535009 18 6.5 18L13.6875 18 A 1.50015 1.50015 0 0 0 14.683594 17.621094L24 9.3398438 z M 35.755859 11.980469 A 1.50015 1.50015 0 0 0 34.429688 14.193359C37.888956 20.818098 37.888956 27.181902 34.429688 33.806641 A 1.50015 1.50015 0 1 0 37.089844 35.193359C40.930574 27.838098 40.930574 20.161902 37.089844 12.806641 A 1.50015 1.50015 0 0 0 35.755859 11.980469 z M 31.171875 16.996094 A 1.50015 1.50015 0 0 0 29.880859 19.138672C31.397398 22.45712 31.395303 25.559819 29.873047 28.878906 A 1.50015 1.50015 0 1 0 32.599609 30.130859C34.437342 26.123947 34.440802 21.898177 32.609375 17.890625 A 1.50015 1.50015 0 0 0 31.171875 16.996094 z" />
    </symbol>
    <symbol id="icon-battery_half" viewBox="0 0 48 48">
        <path d="M9.5 12C6.4802259 12 4 14.480226 4 17.5L4 30.5C4 33.519774 6.4802259 36 9.5 36L34.5 36C37.519774 36 40 33.519774 40 30.5L40 28L42 28C43.105 28 44 27.105 44 26L44 22C44 20.895 43.105 20 42 20L40 20L40 17.5C40 14.480226 37.519774 12 34.5 12L9.5 12 z M 9.5 15L34.5 15C35.898226 15 37 16.101774 37 17.5L37 30.5C37 31.898226 35.898226 33 34.5 33L9.5 33C8.1017741 33 7 31.898226 7 30.5L7 17.5C7 16.101774 8.1017741 15 9.5 15 z M 12 18C10.895 18 10 18.895 10 20L10 28C10 29.105 10.895 30 12 30L20 30C21.105 30 22 29.105 22 28L22 20C22 18.895 21.105 18 20 18L12 18 z" />
    </symbol>
</svg>
